<?xml version="1.0" encoding="UTF-8"?>
<svg width="313px" height="53px" viewBox="0 0 313 53" version="1.1" xmlns="http://www.w3.org/2000/svg" xmlns:xlink="http://www.w3.org/1999/xlink">
    <!-- Generator: Sketch 54.1 (76490) - https://sketchapp.com -->
    
    <desc>Created with Sketch.</desc>
    <defs>
        <linearGradient x1="33.445665%" y1="38.480296%" x2="79.6304479%" y2="67.9143375%" id="linearGradient-1">
            <stop stop-color="#77C67C" offset="0%"></stop>
            <stop stop-color="#319B37" offset="100%"></stop>
        </linearGradient>
    </defs>
    <g id="流程" stroke="none" stroke-width="1" fill="none" fill-rule="evenodd">
        <g id="登录-密码登录" transform="translate(-505.000000, -261.000000)">
            <g id="编组-6" transform="translate(505.000000, 261.000000)">
                <g id="logo">
                    <g id="编组" transform="translate(90.850299, 0.000000)" fill="#47A44C" fill-rule="nonzero">
                        <g id="编组-3">
                            <path d="M11.984,-2.48689958e-14 L15.4,0.644 C15.204,0.952 15.176,1.036 14.98,1.316 C15.176,1.54 15.176,1.54 15.484,1.904 C17.108,3.864 18.676,5.264 20.916,6.748 C22.764,7.98 24.22,8.708 26.6,9.604 C26.04,10.276 25.984,10.388 25.06,12.712 C22.484,11.564 20.468,10.388 18.2,8.708 C16.436,7.364 14.728,5.712 13.244,3.836 C11.592,5.936 10.416,7.056 8.456,8.54 C6.776,9.772 6.44,10.024 4.592,11.116 C3.78,11.592 3.78,11.592 1.708,12.656 C1.4,11.62 1.036,10.976 1.5063506e-12,9.604 C2.38,8.596 2.744,8.428 4.536,7.364 C6.328,6.3 8.148,4.872 9.464,3.5 C10.416,2.492 11.284,1.316 11.984,-2.48689958e-14 Z M12.292,22.316 L12.292,10.892 C12.292,9.548 12.236,8.68 12.124,7.784 L15.568,7.784 C15.456,8.652 15.4,9.408 15.4,10.808 L15.4,13.58 L20.02,13.58 C21.392,13.58 22.288,13.524 23.1,13.44 L23.1,16.688 C22.26,16.604 21.336,16.548 20.048,16.548 L15.4,16.548 L15.4,22.316 L22.372,22.316 C23.968,22.316 25.032,22.26 25.928,22.12 L25.928,25.48 C25.032,25.34 23.884,25.284 22.372,25.284 L4.172,25.284 C2.604,25.284 1.484,25.34 0.56,25.48 L0.56,22.12 C1.344,22.26 2.352,22.316 3.892,22.316 L5.152,22.316 L5.152,15.596 C5.152,14.308 5.096,13.412 4.984,12.404 L8.428,12.404 C8.288,13.272 8.232,14.196 8.232,15.568 L8.232,22.316 L12.292,22.316 Z M39.984,-2.48689958e-14 L43.4,0.644 C43.204,0.952 43.176,1.036 42.98,1.316 C43.176,1.54 43.176,1.54 43.484,1.904 C45.108,3.864 46.676,5.264 48.916,6.748 C50.764,7.98 52.22,8.708 54.6,9.604 C54.04,10.276 53.984,10.388 53.06,12.712 C50.484,11.564 48.468,10.388 46.2,8.708 C44.436,7.364 42.728,5.712 41.244,3.836 C39.592,5.936 38.416,7.056 36.456,8.54 C34.776,9.772 34.44,10.024 32.592,11.116 C31.78,11.592 31.78,11.592 29.708,12.656 C29.4,11.62 29.036,10.976 28,9.604 C30.38,8.596 30.744,8.428 32.536,7.364 C34.328,6.3 36.148,4.872 37.464,3.5 C38.416,2.492 39.284,1.316 39.984,-2.48689958e-14 Z M40.292,22.316 L40.292,10.892 C40.292,9.548 40.236,8.68 40.124,7.784 L43.568,7.784 C43.456,8.652 43.4,9.408 43.4,10.808 L43.4,13.58 L48.02,13.58 C49.392,13.58 50.288,13.524 51.1,13.44 L51.1,16.688 C50.26,16.604 49.336,16.548 48.048,16.548 L43.4,16.548 L43.4,22.316 L50.372,22.316 C51.968,22.316 53.032,22.26 53.928,22.12 L53.928,25.48 C53.032,25.34 51.884,25.284 50.372,25.284 L32.172,25.284 C30.604,25.284 29.484,25.34 28.56,25.48 L28.56,22.12 C29.344,22.26 30.352,22.316 31.892,22.316 L33.152,22.316 L33.152,15.596 C33.152,14.308 33.096,13.412 32.984,12.404 L36.428,12.404 C36.288,13.272 36.232,14.196 36.232,15.568 L36.232,22.316 L40.292,22.316 Z M61.488,5.516 L63.98,5.516 L63.98,12.404 C63.98,17.164 63.812,18.704 63.056,20.804 C62.72,21.728 62.216,22.624 61.292,23.828 C60.508,24.864 59.724,25.704 58.604,26.656 C57.792,25.62 57.316,25.228 56.196,24.696 C58.324,23.492 60.088,21.672 60.788,19.936 C61.376,18.396 61.628,16.24 61.628,12.012 C61.628,10.136 61.572,8.204 61.488,5.516 Z M60.34,1.456 L65.184,1.456 C66.304,1.456 66.78,1.428 67.788,1.372 C67.704,2.212 67.704,2.52 67.704,3.696 L67.704,17.836 C67.704,17.836 67.704,17.892 67.676,17.92 L67.676,18.004 C67.676,18.116 67.676,18.144 67.704,18.228 C70.952,15.624 73.052,12.908 74.956,8.876 L71.456,8.876 C70.42,8.876 69.356,8.932 68.516,9.016 L68.516,5.964 C69.608,6.076 70.476,6.104 71.484,6.104 L76.048,6.104 L76.048,3.864 C76.048,2.632 75.992,1.876 75.88,0.812 L79.184,0.812 C79.044,1.96 79.016,2.688 79.016,3.864 L79.016,6.104 L79.52,6.104 C80.584,6.104 81.284,6.048 82.18,5.936 L82.18,9.016 C81.48,8.904 80.892,8.876 79.632,8.876 L79.016,8.876 L79.016,22.904 C79.016,25.284 78.204,25.928 75.376,25.928 C74.564,25.928 73.332,25.872 72.548,25.788 C72.408,24.528 72.296,23.996 71.848,22.736 C73.304,22.96 74.256,23.044 74.872,23.044 C75.768,23.044 76.048,22.876 76.048,22.288 L76.048,12.656 C73.892,16.828 72.38,18.648 68.88,21.42 C68.46,20.58 68.096,20.076 67.284,19.292 L64.988,19.292 L65.044,16.52 L65.044,4.06 L60.48,4.06 L60.48,16.548 L60.536,19.292 L57.68,19.292 C57.736,18.536 57.764,17.696 57.764,16.548 L57.764,3.892 C57.764,2.716 57.736,2.324 57.68,1.372 C58.772,1.456 59.22,1.456 60.34,1.456 Z M68.88,24.416 L66.332,25.984 C65.072,23.548 64.596,22.792 63.28,21.084 L65.66,19.712 C67.032,21.364 67.788,22.456 68.88,24.416 Z M95.06,13.076 L98.728,13.076 C98.672,13.496 98.616,13.804 98.588,14 C98.532,14.28 98.504,14.476 98.476,14.532 C98.448,14.812 98.448,14.812 98.308,15.344 L105,15.344 C106.792,15.344 107.436,15.316 108.248,15.232 C108.136,15.736 108.108,15.96 108.08,16.38 C108.052,16.464 108.052,16.492 108.052,16.576 C107.772,19.404 107.408,21.392 106.932,22.82 C106.204,24.976 104.944,25.648 101.64,25.648 C100.436,25.648 99.316,25.592 97.272,25.452 C97.132,24.276 96.992,23.828 96.348,22.568 C98.056,22.792 99.428,22.876 100.94,22.876 C103.432,22.876 103.992,22.092 104.328,18.088 L97.86,18.088 C96.796,20.328 95.844,21.504 94.052,22.792 C92.26,24.052 90.356,24.92 86.632,26.068 C86.52,25.928 86.52,25.928 86.38,25.732 C85.54,24.612 85.12,24.164 84.308,23.548 C87.416,22.736 89.04,22.148 90.58,21.308 C92.232,20.412 93.128,19.6 94.164,18.088 L89.572,18.088 C88.368,18.088 87.78,18.116 86.352,18.256 L86.352,15.204 C87.836,15.316 88.732,15.344 89.824,15.344 L94.92,15.344 C95.06,14.616 95.088,14.168 95.088,13.468 C95.088,13.356 95.088,13.272 95.06,13.076 Z M105.028,2.716 L106.82,4.396 C106.316,4.76 106.008,5.068 105.728,5.46 C105.364,5.992 104.356,7.168 103.656,7.84 C102.732,8.736 102.116,9.212 101.164,9.8 C103.376,10.472 105,10.724 110.096,11.34 C109.116,12.432 108.892,12.768 108.192,14.224 C102.228,13.048 100.128,12.46 97.804,11.312 C96.768,11.816 95.9,12.152 93.576,12.852 C92.344,13.244 90.608,13.636 87.164,14.308 C86.324,13.048 85.736,12.32 85.092,11.704 L86.268,11.564 C88.9,11.256 92.764,10.416 94.836,9.744 C93.604,8.932 92.792,8.232 91.672,6.944 C90.972,7.616 90.944,7.644 87.64,9.52 C86.744,8.568 86.24,8.148 85.12,7.448 C88.2,6.048 90.664,4.144 92.036,2.1 C92.064,2.072 92.12,1.988 92.204,1.904 C92.708,1.148 92.848,0.896 93.044,0.28 L96.572,0.84 C96.516,0.924 96.46,0.98 96.292,1.26 C96.18,1.456 96.18,1.456 95.956,1.792 C95.564,2.408 95.48,2.52 95.144,2.884 L102.704,2.912 L102.76,2.912 C103.656,2.912 104.328,2.856 105.028,2.716 Z M102.004,5.46 L94.22,5.46 C95.088,6.636 96.236,7.588 97.972,8.68 C99.876,7.616 101.052,6.692 102.004,5.46 Z M135.352,4.648 L132.748,4.648 C133.42,5.74 133.448,5.796 133.812,6.552 L131.04,7.364 C130.648,6.3 130.34,5.656 129.724,4.648 L128.156,4.648 C127.624,5.376 127.12,5.936 126.308,6.72 L125.972,6.384 C126.224,6.944 126.336,7.252 126.476,7.616 L134.288,7.616 C135.884,7.616 136.388,7.588 137.312,7.532 C137.228,8.036 137.228,8.372 137.228,9.268 L137.228,11.228 C137.228,12.068 137.256,12.544 137.34,13.076 L134.316,13.076 L134.316,10.024 L116.256,10.024 L116.256,13.076 L113.288,13.076 C113.344,12.516 113.4,12.012 113.4,11.228 L113.4,9.324 C113.4,8.484 113.372,8.064 113.288,7.532 C114.128,7.588 114.604,7.616 116.228,7.616 L123.424,7.616 C123.396,7.532 123.368,7.476 123.34,7.42 C123.116,6.86 123.088,6.804 122.836,6.384 L125.272,5.768 C124.824,5.432 124.628,5.292 124.04,4.956 C124.236,4.816 124.348,4.732 124.46,4.648 C123.956,4.62 123.536,4.62 123.2,4.62 L121.352,4.62 C121.8,5.404 121.968,5.768 122.304,6.468 L119.588,7.392 C119.28,6.244 119,5.488 118.552,4.62 L117.04,4.62 C116.144,5.768 115.584,6.328 114.324,7.336 C113.568,6.328 113.4,6.16 112.28,5.264 C114.38,3.808 115.864,1.988 116.536,0.028 L119.532,0.588 C119.168,1.288 119.028,1.54 118.692,2.128 L122.528,2.128 C123.788,2.128 124.376,2.1 125.02,1.988 L125.02,4.172 C126.252,2.94 127.064,1.568 127.456,0.056 L130.452,0.532 C130.172,1.12 129.92,1.652 129.668,2.156 L135.212,2.156 C136.584,2.156 137.144,2.128 137.956,2.016 L137.956,4.788 C137.2,4.676 136.584,4.648 135.352,4.648 Z M120.036,26.18 L116.928,26.18 C117.04,25.2 117.096,24.36 117.096,23.072 L117.096,13.104 C117.096,12.292 117.068,11.788 116.984,11.256 C117.656,11.34 118.384,11.368 119.336,11.368 L130.76,11.368 C131.796,11.368 132.496,11.34 133.168,11.256 C133.084,11.844 133.084,12.376 133.084,13.16 L133.084,15.148 C133.084,16.184 133.084,16.66 133.168,17.332 C132.468,17.276 131.824,17.248 130.872,17.248 L120.036,17.248 L120.036,18.592 L132.048,18.592 C133.084,18.592 133.7,18.564 134.344,18.48 C134.26,19.18 134.232,19.88 134.232,20.804 L134.232,23.632 C134.232,24.584 134.26,25.368 134.372,26.18 L131.292,26.18 L131.292,24.976 L120.036,24.976 L120.036,26.18 Z M120.036,13.552 L120.036,15.036 L130.172,15.036 L130.172,13.552 L120.036,13.552 Z M120.036,20.832 L120.036,22.652 L131.292,22.652 L131.292,20.832 L120.036,20.832 Z M158.788,22.568 L163.296,22.568 C164.78,22.568 165.508,22.54 166.264,22.428 L166.264,25.424 C165.368,25.312 164.612,25.284 163.1,25.284 L151.312,25.284 C149.828,25.284 149.1,25.312 148.148,25.424 L148.148,22.428 C148.904,22.54 149.52,22.568 150.976,22.568 L155.988,22.568 L155.988,19.684 L152.88,19.684 C151.284,19.684 150.696,19.712 149.968,19.796 L149.968,16.94 C150.668,17.052 151.228,17.08 152.852,17.08 L155.988,17.08 L155.988,14.784 L153.328,14.784 C151.452,14.784 150.808,14.812 149.968,14.868 C150.024,14.224 150.024,14.224 150.08,11.396 L150.08,5.068 C150.08,3.164 150.052,2.24 149.94,1.316 C151.004,1.428 151.9,1.456 153.72,1.456 L161.448,1.456 C163.52,1.456 164.36,1.428 165.06,1.316 C164.976,2.128 164.948,3.444 164.948,5.152 L164.948,11.116 C164.948,13.076 164.976,14.056 165.06,14.868 C164.136,14.784 163.688,14.784 162.008,14.784 L158.788,14.784 L158.788,17.08 L162.372,17.08 C163.912,17.08 164.528,17.052 165.34,16.94 L165.34,19.824 C164.528,19.712 163.828,19.684 162.4,19.684 L158.788,19.684 L158.788,22.568 Z M155.988,6.972 L155.988,4.172 L152.88,4.172 L152.88,6.972 L155.988,6.972 Z M158.788,6.972 L162.036,6.972 L162.036,4.172 L158.788,4.172 L158.788,6.972 Z M155.988,12.152 L155.988,9.324 L152.88,9.324 L152.88,12.152 L155.988,12.152 Z M158.788,12.152 L162.036,12.152 L162.036,9.324 L158.788,9.324 L158.788,12.152 Z M146.44,4.452 L146.44,9.912 L147.084,9.912 C147.812,9.912 148.232,9.884 148.848,9.772 L148.848,12.628 C148.288,12.544 147.728,12.516 147.084,12.516 L146.44,12.516 L146.44,18.032 C147.924,17.388 148.008,17.36 149.184,16.772 L149.268,19.74 C146.944,20.888 145.768,21.392 141.96,22.96 C141.26,23.24 141.176,23.268 140.84,23.408 L140.084,20.244 C141.036,20.048 141.624,19.852 143.528,19.18 L143.528,12.516 L142.604,12.516 C141.792,12.516 141.344,12.544 140.7,12.656 L140.7,9.772 C141.372,9.884 141.792,9.912 142.66,9.912 L143.528,9.912 L143.528,4.452 L142.464,4.452 C141.568,4.452 141.064,4.48 140.364,4.592 L140.364,1.568 C141.036,1.68 141.764,1.736 142.912,1.736 L146.86,1.736 C147.98,1.736 148.652,1.708 149.352,1.568 L149.352,4.564 C148.652,4.48 148.064,4.452 147.28,4.452 L146.44,4.452 Z M182.728,4.088 L182.728,13.608 L190.624,13.608 C192.164,13.608 193.004,13.552 193.956,13.412 L193.956,16.688 C193.004,16.548 191.912,16.492 190.428,16.492 L182.728,16.492 L182.728,22.736 C182.728,23.884 182.784,25.088 182.924,26.348 L179.368,26.348 C179.508,25.088 179.564,24.024 179.564,22.736 L179.564,16.492 L172.088,16.492 C170.744,16.492 169.652,16.548 168.56,16.688 L168.56,13.412 C169.512,13.552 170.324,13.608 172.004,13.608 L179.564,13.608 L179.564,4.088 L173.264,4.088 C171.808,4.088 170.884,4.144 169.82,4.256 L169.82,1.064 C170.856,1.176 171.752,1.232 173.32,1.232 L189.28,1.232 C190.876,1.232 191.772,1.176 192.78,1.064 L192.78,4.256 C191.744,4.144 190.82,4.088 189.364,4.088 L182.728,4.088 Z M171.136,6.16 L173.852,4.872 C175.448,7.252 176.344,8.904 177.324,11.452 L174.44,12.908 C173.488,10.08 172.648,8.4 171.136,6.16 Z M188.524,4.9 L191.408,6.216 C190.204,9.044 189.28,10.696 187.544,13.076 L184.772,11.676 C186.592,9.408 187.488,7.756 188.524,4.9 Z M205.884,0.28 L209.244,1.54 C209.048,1.792 209.048,1.792 208.46,2.576 C206.612,4.984 204.568,7.308 202.972,8.848 C209.412,8.624 209.412,8.624 215.096,8.204 C213.836,6.72 213.136,5.992 211.26,4.312 L213.976,2.772 C217.28,5.908 219.044,7.868 221.872,11.62 L219.1,13.524 C218.148,12.096 217.812,11.62 217.196,10.808 C209.832,11.48 209.832,11.48 201.74,11.816 C200.536,11.872 199.724,11.9 198.128,12.012 L197.568,8.904 C199.08,8.624 199.416,8.456 200.788,7.168 C203.672,3.836 203.896,3.556 205.184,1.54 C205.296,1.372 205.408,1.204 205.492,1.092 C205.744,0.728 205.772,0.644 205.884,0.28 Z M202.72,26.04 L199.556,26.04 C199.668,24.976 199.724,24.108 199.724,22.848 L199.724,16.52 C199.724,15.484 199.668,14.7 199.584,13.916 C200.2,14 201.04,14.028 202.496,14.028 L215.852,14.028 C217.336,14.028 218.148,14 218.792,13.916 C218.68,14.728 218.652,15.372 218.652,16.52 L218.652,22.848 C218.652,24.164 218.708,25.06 218.82,26.04 L215.628,26.04 L215.628,24.584 L202.72,24.584 L202.72,26.04 Z M202.692,16.772 L202.692,21.84 L215.656,21.84 L215.656,16.772 L202.692,16.772 Z" id="企企财务管理平台"></path>
                            <path d="M11,38.2 C8.85865596,40.3560108 7.4580033,42.533989 6.798,44.734 C6.31399758,46.3620081 6.072,48.8846496 6.072,52.302 L3.696,52.302 C3.696,49.1633176 3.9526641,46.6700092 4.466,44.822 C5.09666982,42.5486553 6.31399098,40.3926769 8.118,38.354 L4.97379915e-13,38.354 L4.97379915e-13,36.242 L11,36.242 L11,38.2 Z M26.0333333,38.2 C23.8919893,40.3560108 22.4913366,42.533989 21.8313333,44.734 C21.3473309,46.3620081 21.1053333,48.8846496 21.1053333,52.302 L18.7293333,52.302 C18.7293333,49.1633176 18.9859974,46.6700092 19.4993333,44.822 C20.1300032,42.5486553 21.3473243,40.3926769 23.1513333,38.354 L15.0333333,38.354 L15.0333333,36.242 L26.0333333,36.242 L26.0333333,38.2 Z M42.8266667,52.324 L40.5826667,52.324 L40.5826667,45.306 L31.7606667,45.306 L31.7606667,52.324 L29.5166667,52.324 L29.5166667,36.242 L31.7606667,36.242 L31.7606667,43.194 L40.5826667,43.194 L40.5826667,36.242 L42.8266667,36.242 L42.8266667,52.324 Z M59.136,45.636 C59.136,48.0853456 58.5420059,49.8599945 57.354,50.96 C56.283328,51.9866718 54.6406777,52.5 52.426,52.5 C50.2113223,52.5 48.568672,51.9866718 47.498,50.96 C46.3393275,49.8599945 45.76,48.0853456 45.76,45.636 L45.76,36.242 L48.048,36.242 L48.048,45.636 C48.048,47.4693425 48.4073297,48.7306632 49.126,49.42 C49.7566698,50.0213363 50.8566588,50.322 52.426,50.322 C54.0100079,50.322 55.1173302,50.0213363 55.748,49.42 C56.4666703,48.7306632 56.826,47.4693425 56.826,45.636 L56.826,36.242 L59.136,36.242 L59.136,45.636 Z M74.8293333,47.792 C74.8293333,49.3320077 74.1253404,50.5126626 72.7173333,51.334 C71.6173278,51.9940033 70.3340073,52.324 68.8673333,52.324 L62.0693333,52.324 L62.0693333,36.286 L68.9993333,36.286 C72.5926846,36.286 74.3893333,37.7013192 74.3893333,40.532 C74.3893333,41.940007 73.8100058,43.0546626 72.6513333,43.876 C74.1033406,44.6973374 74.8293333,46.0026577 74.8293333,47.792 Z M72.0793333,40.532 C72.0793333,39.1093262 71.0380104,38.398 68.9553333,38.398 L64.2913333,38.398 L64.2913333,42.93 L68.5153333,42.93 C69.5860054,42.93 70.4439968,42.7026689 71.0893333,42.248 C71.7493366,41.8079978 72.0793333,41.2360035 72.0793333,40.532 Z M72.4973333,47.792 C72.4973333,46.8679954 72.1233371,46.1640024 71.3753333,45.68 C70.7299968,45.2399978 69.8720054,45.02 68.8013333,45.02 L64.2913333,45.02 L64.2913333,50.212 L68.8013333,50.212 C69.8866721,50.212 70.7739966,49.9773357 71.4633333,49.508 C72.1526701,49.0239976 72.4973333,48.4520033 72.4973333,47.792 Z M81.7886667,52.5 L78.9726667,52.5 L78.9726667,49.684 L81.7886667,49.684 L81.7886667,52.5 Z M100.078,40.136 L98.01,40.95 C97.217996,39.1166575 95.7660106,38.2 93.654,38.2 C92.245993,38.2 91.0580048,38.7059949 90.09,39.718 C88.9899945,40.8766725 88.44,42.4606566 88.44,44.47 C88.44,46.4793434 88.9679947,48.0046615 90.024,49.046 C90.8893377,49.8966709 91.9673269,50.322 93.258,50.322 C95.4140108,50.322 96.9686619,49.2586773 97.922,47.132 L99.836,47.99 C99.1759967,49.4713407 98.3693381,50.5713297 97.416,51.29 C96.3159945,52.0966707 94.9300084,52.5 93.258,52.5 C91.1753229,52.5 89.4886731,51.8326733 88.198,50.498 C86.8193264,49.0459927 86.13,47.0366795 86.13,44.47 C86.13,42.0646546 86.8486595,40.0480081 88.286,38.42 C89.7233405,36.8066586 91.512656,36 93.654,36 C96.7486821,36 98.8899941,37.3786529 100.078,40.136 Z M117.377333,44.25 C117.377333,46.5820117 116.761339,48.510659 115.529333,50.036 C114.223993,51.6786749 112.449345,52.5 110.205333,52.5 C107.961322,52.5 106.17934,51.6786749 104.859333,50.036 C103.627327,48.510659 103.011333,46.5820117 103.011333,44.25 C103.011333,41.9179883 103.627327,39.989341 104.859333,38.464 C106.17934,36.8359919 107.961322,36.022 110.205333,36.022 C112.449345,36.022 114.223993,36.8359919 115.529333,38.464 C116.761339,39.989341 117.377333,41.9179883 117.377333,44.25 Z M115.045333,44.25 C115.045333,42.4019908 114.598004,40.9280055 113.703333,39.828 C112.808662,38.7426612 111.642674,38.2 110.205333,38.2 C108.738659,38.2 107.565338,38.7426612 106.685333,39.828 C105.805329,40.9280055 105.365333,42.4019908 105.365333,44.25 C105.365333,46.0980092 105.812662,47.5719945 106.707333,48.672 C107.602004,49.7866722 108.767993,50.344 110.205333,50.344 C111.642674,50.344 112.808662,49.7866722 113.703333,48.672 C114.598004,47.5719945 115.045333,46.0980092 115.045333,44.25 Z M136.612667,52.324 L134.390667,52.324 L134.390667,40.422 L129.506667,52.324 L127.416667,52.324 L122.532667,40.422 L122.532667,52.324 L120.310667,52.324 L120.310667,36.242 L123.148667,36.242 L128.472667,49.376 L133.774667,36.242 L136.612667,36.242 L136.612667,52.324 Z" id="77HUB.COM"></path>
                        </g>
                    </g>
                    <path d="M39.1851079,46.9850299 L56.8862275,46.9850299 C64.7405765,46.9850299 71.1077844,40.617822 71.1077844,32.7634731 C71.1077844,24.9091241 64.7405765,18.5419162 56.8862275,18.5419162 L56.0794619,18.541916 C53.1935008,11.0546909 45.9296878,5.74251497 37.4251497,5.74251497 C28.9206116,5.74251497 21.6567986,11.0546909 18.7708375,18.541916 L17.9640719,18.5419162 C10.1097229,18.5419162 3.74251497,24.9091241 3.74251497,32.7634731 C3.74251497,40.617822 10.1097229,46.9850299 17.9640719,46.9850299 L26.7580059,46.9850299 C27.0139682,46.7053975 27.3223241,46.4745214 27.66753,46.3079452 C28.7959709,39.6943448 30.7712944,33.3695438 33.4779514,27.4490912 C29.3602877,27.4490942 26.0452416,27.4490965 23.5328131,27.4490983 C22.9836868,28.0905157 22.1680564,28.497006 21.257485,28.497006 C19.6039379,28.497006 18.2634731,27.1565412 18.2634731,25.502994 C18.2634731,23.8494469 19.6039379,22.508982 21.257485,22.508982 C21.3030585,22.508982 21.3483942,22.5100003 21.3934706,22.5120152 L23.3960562,19.0191332 C23.1311353,18.57246 22.9790419,18.0509976 22.9790419,17.494012 C22.9790419,15.8404648 24.3195067,14.5 25.9730539,14.5 C27.1716103,14.5 28.2056756,15.20427 28.6839967,16.2215569 L47.6997878,16.2215569 C48.1928463,15.244737 49.2053187,14.5748503 50.3742515,14.5748503 C52.0277987,14.5748503 53.3682635,15.9153151 53.3682635,17.5688623 C53.3682635,19.1846774 52.0882764,20.5015355 50.4869464,20.5607925 C48.8724207,22.7564581 47.3916404,25.0565607 46.0566177,27.4490881 C42.742357,33.3886576 40.3264086,39.8978464 38.9925604,46.7928669 C39.0596013,46.8539871 39.1238548,46.9181125 39.1851079,46.9850299 Z M35.3805239,46.472069 C37.0851777,37.4316233 40.5481256,29.0122154 45.4005034,21.5827094 C45.7060312,21.1479714 46.0166683,20.7166332 46.3323353,20.2887688 L46.3323353,20.1929101 C46.3676903,20.1415306 46.4031128,20.0902012 46.4386028,20.0389222 L44.1367415,20.0389222 L27.5510249,20.0389222 C27.4131141,20.1246152 27.2677257,20.1994105 27.1160632,20.2621045 L25.0748503,23.7814371 C28.8723421,23.7814338 31.8980366,23.7814312 34.1519338,23.7814293 C34.6937558,23.0118097 35.5890553,22.508982 36.6017964,22.508982 C38.2553436,22.508982 39.5958084,23.8494469 39.5958084,25.502994 C39.5958084,26.9105274 38.6245391,28.0912087 37.3156637,28.4113746 C34.541996,34.3194333 32.5375234,40.6602913 31.4312489,47.3049456 C31.7653624,47.7880363 31.9610778,48.3741563 31.9610778,49.005988 C31.9610778,50.6595352 30.620613,52 28.9670659,52 C27.9543213,52 27.0590192,51.4971689 26.5171977,50.7275449 L17.9640719,50.7275449 C8.04278893,50.7275449 -1.70408756e-12,42.684756 -1.70530257e-12,32.7634731 C-1.70645234e-12,23.3748773 7.20231784,15.668473 16.3832102,14.8680034 C20.314152,7.22670968 28.2779817,2 37.4625749,2 C46.6499775,2 54.6158698,7.22990779 58.5455445,14.8750162 C67.6889807,15.7124179 74.8502994,23.4016377 74.8502994,32.7634731 C74.8502994,42.684756 66.8075105,50.7275449 56.8862275,50.7275449 L39.425916,50.7275449 C38.8840946,51.4971689 37.9887925,52 36.9760479,52 C35.3225007,52 33.9820359,50.6595352 33.9820359,49.005988 C33.9820359,47.9389543 34.5402214,47.0022918 35.3805239,46.472069 Z M25.9730539,19.3652695 C27.0065209,19.3652695 27.8443114,18.5274789 27.8443114,17.494012 C27.8443114,16.460545 27.0065209,15.6227545 25.9730539,15.6227545 C24.9395869,15.6227545 24.1017964,16.460545 24.1017964,17.494012 C24.1017964,18.5274789 24.9395869,19.3652695 25.9730539,19.3652695 Z M21.257485,27.3742515 C22.290952,27.3742515 23.1287425,26.536461 23.1287425,25.502994 C23.1287425,24.469527 22.290952,23.6317365 21.257485,23.6317365 C20.2240181,23.6317365 19.3862275,24.469527 19.3862275,25.502994 C19.3862275,26.536461 20.2240181,27.3742515 21.257485,27.3742515 Z M36.6017964,27.3742515 C37.6352634,27.3742515 38.4730539,26.536461 38.4730539,25.502994 C38.4730539,24.469527 37.6352634,23.6317365 36.6017964,23.6317365 C35.5683294,23.6317365 34.7305389,24.469527 34.7305389,25.502994 C34.7305389,26.536461 35.5683294,27.3742515 36.6017964,27.3742515 Z M28.9670659,50.8772455 C30.0005328,50.8772455 30.8383234,50.039455 30.8383234,49.005988 C30.8383234,47.9725211 30.0005328,47.1347305 28.9670659,47.1347305 C27.9335989,47.1347305 27.0958084,47.9725211 27.0958084,49.005988 C27.0958084,50.039455 27.9335989,50.8772455 28.9670659,50.8772455 Z M50.3742515,19.4401198 C51.4077185,19.4401198 52.245509,18.6023292 52.245509,17.5688623 C52.245509,16.5353953 51.4077185,15.6976048 50.3742515,15.6976048 C49.3407845,15.6976048 48.502994,16.5353953 48.502994,17.5688623 C48.502994,18.6023292 49.3407845,19.4401198 50.3742515,19.4401198 Z M36.9760479,50.8772455 C38.0095149,50.8772455 38.8473054,50.039455 38.8473054,49.005988 C38.8473054,47.9725211 38.0095149,47.1347305 36.9760479,47.1347305 C35.9425809,47.1347305 35.1047904,47.9725211 35.1047904,49.005988 C35.1047904,50.039455 35.9425809,50.8772455 36.9760479,50.8772455 Z" id="形状结合" fill="url(#linearGradient-1)"></path>
                </g>
            </g>
        </g>
    </g>
</svg>