<?xml version="1.0" encoding="utf-8"?>
<!-- Generator: Adobe Illustrator 23.0.6, SVG Export Plug-In . SVG Version: 6.00 Build 0)  -->
<svg version="1.1" id="图层_1" xmlns="http://www.w3.org/2000/svg" xmlns:xlink="http://www.w3.org/1999/xlink" x="0px" y="0px"
	 viewBox="0 0 32 32" style="enable-background:new 0 0 32 32;" xml:space="preserve">
<style type="text/css">
	.st0{clip-path:url(#SVGID_2_);fill:#5FE0F7;}
	.st1{fill:#22C5EE;}
	.st2{clip-path:url(#SVGID_4_);fill:#5FE0F7;}
	.st3{clip-path:url(#SVGID_6_);fill:#5FE0F7;}
	.st4{clip-path:url(#SVGID_8_);fill:#864BF7;}
	.st5{clip-path:url(#SVGID_10_);fill:#864BF7;}
	.st6{fill:#4616EE;}
	.st7{clip-path:url(#SVGID_12_);fill:#864BF7;}
</style>
<g>
	<g>
		<g>
			<defs>
				<rect id="SVGID_1_" x="18.58" y="13.66" width="11.49" height="18.34"/>
			</defs>
			<clipPath id="SVGID_2_">
				<use xlink:href="#SVGID_1_"  style="overflow:visible;"/>
			</clipPath>
			<path class="st0" d="M30.06,15.5c0,0-0.05-0.47-0.4-0.93c-0.04,0.04-0.08,0.07-0.12,0.11c0.04-0.04,0.08-0.07,0.12-0.11
				c-0.35-0.47-1.06-0.93-2.47-0.9l-2.21,0.04l-0.47,0.01l0,0L18.81,28c-0.62,1.48,0.08,3.18,1.57,3.79
				c1.46,0.59,3.12-0.1,3.73-1.55C24.11,30.24,30.43,14.66,30.06,15.5"/>
		</g>
	</g>
	<path class="st1" d="M27.19,13.66c1.41-0.03,2.12,0.44,2.47,0.9c0,0,0.01-0.01,0.01-0.01c-0.01,0-0.01,0.01-0.01,0.01
		c0.35,0.46,0.39,0.94,0.39,0.94c0.37-0.84,0.67-1.65,1-2.48c0.15-0.37,0.32-0.73,0.43-1.14c0,0,0-0.01,0-0.01
		c0.02-0.07,0.03-0.14,0.05-0.22c0.01-0.04,0.01-0.08,0.02-0.12c0.01-0.05,0.01-0.1,0.02-0.15c0.01-0.1,0.01-0.2,0.01-0.3
		c-0.04-2.46-1.73-3.42-2.55-3.41l-0.03,0l-1.38,0.03h0l-0.57,0.01l-2.53,5.99l0.47-0.01L27.19,13.66z M30.89,13.16
		c-0.02,0.04-0.05,0.07-0.07,0.1C30.84,13.23,30.87,13.19,30.89,13.16"/>
	<g>
		<g>
			<defs>
				<rect id="SVGID_3_" x="5.95" y="7.82" width="12.32" height="6.06"/>
			</defs>
			<clipPath id="SVGID_4_">
				<use xlink:href="#SVGID_3_"  style="overflow:visible;"/>
			</clipPath>
			<path class="st2" d="M18.27,7.82l-1.75,0.02L8.87,7.94c-1.64,0.03-2.95,1.38-2.92,3.03c0.03,1.64,1.38,2.95,3.03,2.92l5.16-0.06
				l1.75-0.02l0.02-0.05L18.27,7.82z"/>
		</g>
	</g>
	<g>
		<g>
			<defs>
				<rect id="SVGID_5_" x="22.15" y="7.71" width="5.46" height="6.02"/>
			</defs>
			<clipPath id="SVGID_6_">
				<use xlink:href="#SVGID_5_"  style="overflow:visible;"/>
			</clipPath>
			<polygon class="st3" points="24.57,7.75 22.17,13.68 22.15,13.73 24.52,13.71 27.04,7.72 27.61,7.71 			"/>
		</g>
	</g>
	<g>
		<g>
			<defs>
				<rect id="SVGID_7_" x="18.27" y="5.98" width="6.32" height="1.9"/>
			</defs>
			<clipPath id="SVGID_8_">
				<use xlink:href="#SVGID_7_"  style="overflow:visible;"/>
			</clipPath>
			<path class="st4" d="M22.71,7.88c0.02-0.04,0.03-0.07,0.05-0.11l0.05,0l1.75-0.02l0.02-0.05c0,0-0.16-0.43-0.45-0.81
				c-0.36-0.46-1.06-0.93-2.47-0.9l-2.21,0.04l-0.47,0.01l0,0l-0.7,1.74l-0.02,0.05l4.43-0.05C22.71,7.84,22.71,7.88,22.71,7.88"/>
		</g>
	</g>
	<g>
		<g>
			<defs>
				<rect id="SVGID_9_" x="13.05" y="13.73" width="9.1" height="10.58"/>
			</defs>
			<clipPath id="SVGID_10_">
				<use xlink:href="#SVGID_9_"  style="overflow:visible;"/>
			</clipPath>
			<path class="st5" d="M15.88,13.8l-2.6,6.52c-0.62,1.48,0.08,3.18,1.57,3.79c1.46,0.59,3.12-0.1,3.73-1.55l3.57-8.83l-1.75,0.02
				L15.88,13.8z"/>
		</g>
	</g>
	<path class="st6" d="M24.57,7.75l-1.75,0.02l-0.05,0c-0.02,0.04-0.03,0.07-0.05,0.11c0,0,0-0.04-0.01-0.11l-4.43,0.05l-2.37,5.93
		l-0.02,0.05l4.52-0.05l1.75-0.02l0.02-0.05L24.57,7.75z"/>
	<path class="st6" d="M24.57,7.75l-1.75,0.02l-0.05,0c-0.02,0.04-0.03,0.07-0.05,0.11c0,0,0-0.04-0.01-0.11l-4.43,0.05l-2.37,5.93
		l-0.02,0.05l4.52-0.05l1.75-0.02l0.02-0.05L24.57,7.75z"/>
	<g>
		<g>
			<defs>
				<rect id="SVGID_11_" x="0.42" y="0.03" width="21.66" height="6.17"/>
			</defs>
			<clipPath id="SVGID_12_">
				<use xlink:href="#SVGID_11_"  style="overflow:visible;"/>
			</clipPath>
			<path class="st7" d="M22.09,0.03L3.34,0.25C1.7,0.28,0.39,1.64,0.43,3.28C0.45,4.92,1.81,6.23,3.45,6.2l15.54-0.17l2.53-5.99
				L22.09,0.03z"/>
		</g>
	</g>
	<path class="st6" d="M21.66,5.98c1.42-0.03,2.12,0.44,2.47,0.9c0,0,0.01-0.01,0.01-0.01c0,0-0.01,0.01-0.01,0.01
		c0.35,0.46,0.44,0.83,0.44,0.83c0.37-0.84,0.61-1.54,0.95-2.37c0.15-0.37,0.32-0.73,0.43-1.14c0,0,0-0.01,0-0.01
		c0.02-0.07,0.03-0.14,0.05-0.22c0.01-0.04,0.01-0.08,0.02-0.12c0.01-0.05,0.01-0.1,0.02-0.15c0.01-0.1,0.01-0.2,0.01-0.3
		C26,0.94,24.32-0.01,23.5,0l-0.03,0l-1.38,0.03h0l-0.57,0.01l-2.53,5.99l0.47-0.01L21.66,5.98z M25.36,5.47
		c-0.02,0.04-0.05,0.07-0.07,0.1C25.32,5.54,25.34,5.51,25.36,5.47"/>
</g>
</svg>
